<svg viewBox="-36 -30 430 359" fill="none" xmlns="http://www.w3.org/2000/svg">
  <rect width="122" height="299" rx="51" fill="#131313" />
  <rect x="142" width="216" height="89" rx="37" fill="#131313" />
  <path
    d="M301 109C332.48 109 358 134.52 358 166V242C358 273.48 332.48 299 301 299H199C167.52 299 142 273.48 142 242V166C142 134.52 167.52 109 199 109H301ZM249.5 156C222.714 156 201 177.714 201 204.5C201 231.286 222.714 253 249.5 253C276.286 253 298 231.286 298 204.5C298 177.714 276.286 156 249.5 156Z"
    fill="#131313"
  />
</svg>
