<svg xmlns="http://www.w3.org/2000/svg" width="139" height="139" viewBox="0 0 139 139" fill="none"><circle cx="69.5" cy="69.5" r="69.5" fill="#FCFCFC"></circle><path d="M42.2458 31H37.1061C29.8678 31 24 36.8298 24 44.0213V94.3191C24 101.511 29.8678 107.34 37.1061 107.34H42.2458C49.4841 107.34 55.3519 101.511 55.3519 94.3191V44.0213C55.3519 36.8298 49.4841 31 42.2458 31Z" fill="#1C1C1C"></path><path d="M106.492 31H70.0001C64.7487 31 60.4917 35.2295 60.4917 40.4468V44.2766C60.4917 49.4939 64.7487 53.7234 70.0001 53.7234H106.492C111.743 53.7234 116 49.4939 116 44.2766V40.4468C116 35.2295 111.743 31 106.492 31Z" fill="#1C1C1C"></path><path d="M101.352 58.8298C109.442 58.8298 116 65.3456 116 73.383V92.7872C116 100.825 109.442 107.34 101.352 107.34H75.1397C67.0499 107.34 60.4917 100.825 60.4917 92.7872V73.383C60.4917 65.3456 67.0499 58.8298 75.1397 58.8298H101.352ZM88.1174 70.8298C81.2338 70.8298 75.6537 76.3738 75.6537 83.2128C75.6537 90.0518 81.2338 95.5957 88.1174 95.5957C95.0009 95.5957 100.581 90.0518 100.581 83.2128C100.581 76.3738 95.0009 70.8298 88.1174 70.8298Z" fill="#1C1C1C"></path></svg>